
		<svg xmlns="http://www.w3.org/2000/svg" xmlns:xlink="http://www.w3.org/1999/xlink" version="1.1" width="3020" height="746">
			
			<g transform="scale(1) translate(10, 10)">
				<defs><linearGradient id="linear-gradient" x1="1273.24" y1="956.4" x2="1274.24" y2="956.4" gradientTransform="matrix(725.26, 0, 0, -725.26, -923354.58, 694087.8)" gradientUnits="userSpaceOnUse"><stop offset="0" stop-color="#786756"/><stop offset="0.33" stop-color="#847361"/><stop offset="0.67" stop-color="#a8a49b"/><stop offset="1" stop-color="#d6d6d6"/></linearGradient></defs><g id="1588522091289" rel="symbol"><path class="cls-1" d="M443.79,81.16c-200.27,0-362.63,162.36-362.63,362.63S243.52,806.42,443.79,806.42,806.42,644.07,806.42,443.79,644.07,81.16,443.79,81.16ZM592.58,431.44c82.18,82.19,82.17,215.44,0,297.61a210.19,210.19,0,0,1-47,35.38,144.32,144.32,0,1,0-204.1-.62c.21.21.41.42.62.62C240.32,708.24,203.4,580.23,259.59,478.5S443.8,339.85,545.53,396A210.16,210.16,0,0,1,592.58,431.44ZM534.7,571.2a128.56,128.56,0,0,1,0,181.8h0a129.27,129.27,0,0,1-16.43,13.75,89.75,89.75,0,1,0-149,0A128.52,128.52,0,1,1,534.54,571Zm-126.08,200A34.14,34.14,0,0,0,409,775a46.69,46.69,0,1,1,69.59,0,36.74,36.74,0,0,0,.38-3.77,35.18,35.18,0,1,0-70.35,0Zm87.49-106.89a73.86,73.86,0,0,1,8.2,94.78,62.46,62.46,0,1,0-121,0,74,74,0,0,1,112.84-94.78ZM424.38,771.25a19.41,19.41,0,1,1,19.41,19.41,19.41,19.41,0,0,1-19.41-19.41Zm264.68-82.19A347.05,347.05,0,0,1,573.47,765.5c102.36-71.62,127.27-212.65,55.65-315s-212.66-127.26-315-55.64-127.26,212.65-55.64,315a225.9,225.9,0,0,0,55.64,55.64c-177.68-71.62-263.65-273.71-192-451.39s273.71-263.65,451.39-192,263.65,273.71,192,451.39a346.65,346.65,0,0,1-76.44,115.59Z" transform="translate(-81.16 -81.16)" style="fill: url(#linear-gradient);"/></g><g id="1588522087714" rel="main_text"><path class="cls-2" d="M985,707.82h111.12V727H965.81V633.74H985v74.08Zm220.68,19.67h-19V635.13h19Zm219.54-46c-.16,11.17,0,36.23,0,36.48l.06,9.57h-64.58c-19.4,0-35.64-4.35-47-12.56s-17.56-20.17-17.56-33.63a40.21,40.21,0,0,1,12.17-29.13c11.4-11.32,29.52-17.22,52.41-17,14,.11,54.52,0,54.92,0l9.51,0,0,19-9.5,0c-.41,0-41,.11-55.11,0-17.48-.14-31.27,4-38.88,11.53a21.31,21.31,0,0,0-6.56,15.65c0,16.75,17.44,27.17,45.51,27.17h45.46c0-5.21,0-11.77,0-17.67h-36.61v-19h55.83ZM1627,634.21h19.2v93.28H1627v-37h-91.92v37h-19.2V634.21h19.2v37H1627Zm109.59-1.16H1867v19.2h-55.57V726.6h-19.2V652.25h-55.55v-19.2Zm286,45.69,65.16-43.44v92h-19.2V671.17l-46,30.64-46-30.64v56.12h-19.2v-92Zm277.68-36.09c7.5,7.44,7.44,18.2,7.34,34.49,0,1.22,0,2.47,0,3.77,0,9.67-.07,16.66-1.08,22.55-.87,5-2.86,12.26-10.17,17.13-9.26,6.17-23.09,6.31-53.38,6.61-4.73,0-9.1.09-13.12.09-24,0-36.07-1.27-43.78-8.93-8-8-8-19.73-7.92-37.52.08-19.84.12-31.82,10.18-39.25,8.68-6.42,21.28-6.59,48.9-7l5.51-.07c34.41-.5,48.66-.7,57.53,8.09ZM2288.62,677c.05-9.36.11-19-1.7-20.84-2.26-2.24-12.37-2.76-25.83-2.76-5.54,0-11.65.09-18,.18l-5.53.08c-19.79.26-34.08.46-37.82,3.22-2.36,1.75-2.4,12.06-2.45,24,0,11.08-.08,21.56,2.3,23.91,3.72,3.7,23.82,3.5,43.26,3.31,22.33-.22,38.46-.39,43-3.41,2.67-1.78,2.7-11.05,2.75-23.88,0-1.32,0-2.59,0-3.81Zm109.49-44h130.33v19.2h-55.57V726.6h-19.2V652.25h-55.55v-19.2ZM2638,727.49h-19V635.13h19Zm206.53-92.91h23.76l-73.73,98.31-73.74-98.31h23.76l50,66.64Zm236.64,18.72H2970v17.88l74.11.27-.07,19.2-74-.28v17.82h111.12v19.19H2950.84V634.11h130.32V653.3Z" transform="translate(-81.16 -81.16)" style="fill: #008aff;"/></g>
			</g>
		</svg>
	