<svg id="Layer_1" data-name="Layer 1" xmlns="http://www.w3.org/2000/svg" viewBox="0 0 3000.01 725.26"><defs><style>.cls-1{fill:#fff;}</style></defs><g id="_1588522100540" data-name="1588522100540"><path class="cls-1" d="M372.63,10C172.36,10,10,172.36,10,372.63S172.36,735.26,372.63,735.26,735.26,572.91,735.26,372.63,572.91,10,372.63,10ZM521.42,360.28c82.18,82.19,82.17,215.44,0,297.61a210,210,0,0,1-47,35.38,144.32,144.32,0,1,0-204.1-.62c.21.21.41.42.62.62-101.78-56.19-138.7-184.2-82.51-285.93s184.21-138.65,285.94-82.5A210.33,210.33,0,0,1,521.42,360.28ZM463.54,500a128.56,128.56,0,0,1,0,181.8h0a129.27,129.27,0,0,1-16.43,13.75,89.75,89.75,0,1,0-149,0A128.52,128.52,0,1,1,463.38,499.84ZM337.46,700a34.68,34.68,0,0,0,.38,3.8,46.69,46.69,0,1,1,69.59,0,36.74,36.74,0,0,0,.38-3.77,35.18,35.18,0,1,0-70.35-1.19c0,.4,0,.79,0,1.19ZM425,593.15a73.86,73.86,0,0,1,8.2,94.78,62.46,62.46,0,1,0-121,0A74,74,0,0,1,425,593.15ZM353.22,700.09a19.41,19.41,0,1,1,19.41,19.41h0A19.41,19.41,0,0,1,353.22,700.09ZM617.9,617.9a347.05,347.05,0,0,1-115.59,76.44c102.36-71.62,127.27-212.65,55.65-315S345.3,252.08,243,323.7s-127.26,212.65-55.64,315A225.9,225.9,0,0,0,243,694.34C65.28,622.72-20.69,420.63,51,243S324.67-20.7,502.35,51,766,324.66,694.35,502.34a346.65,346.65,0,0,1-76.44,115.59Z" transform="translate(-10 -10)"/></g><g id="_1588522097288" data-name="1588522097288"><path class="cls-1" d="M913.84,636.66H1025v19.18H894.65V562.58h19.19Zm220.68,19.67h-19V564h19Zm219.54-46c-.16,11.17,0,36.23,0,36.48l.06,9.57h-64.58c-19.4,0-35.64-4.35-47-12.56S1225,623.65,1225,610.19a40.22,40.22,0,0,1,12.17-29.13c11.4-11.32,29.52-17.22,52.41-17,14,.11,54.52,0,54.92,0H1354v19h-9.5c-.41,0-41,.11-55.11,0-17.48-.14-31.27,4-38.88,11.53a21.32,21.32,0,0,0-6.56,15.65c0,16.75,17.44,27.17,45.51,27.17h45.46V619.74H1298.3v-19h55.83Zm201.78-47.28H1575v93.28h-19.2v-37h-91.92v37h-19.2V563.05h19.2v37h91.92Zm109.59-1.16h130.41v19.2h-55.57v74.35h-19.2V581.09h-55.55v-19.2Zm286,45.69,65.16-43.44v92h-19.2V600l-46,30.64-46-30.64v56.12h-19.2v-92Zm277.68-36.09c7.5,7.44,7.44,18.2,7.34,34.49v3.77c0,9.67-.07,16.66-1.08,22.55-.87,5-2.86,12.26-10.17,17.13-9.26,6.17-23.09,6.31-53.38,6.61-4.73,0-9.1.09-13.12.09-24,0-36.07-1.27-43.78-8.93-8-8-8-19.73-7.92-37.52.08-19.84.12-31.82,10.18-39.25,8.68-6.42,21.28-6.59,48.9-7l5.51-.07c34.41-.5,48.66-.7,57.53,8.09Zm-11.65,34.35c.05-9.36.11-19-1.7-20.84-2.26-2.24-12.37-2.76-25.83-2.76-5.54,0-11.65.09-18,.18l-5.53.08c-19.79.26-34.08.46-37.82,3.22-2.36,1.75-2.4,12.06-2.45,24,0,11.08-.08,21.56,2.3,23.91,3.72,3.7,23.82,3.5,43.26,3.31,22.33-.22,38.46-.39,43-3.41,2.67-1.78,2.7-11,2.75-23.88v-3.81Zm109.49-44h130.33V581h-55.57v74.4h-19.2V581.09H2327V561.84Zm239.89,94.49h-19V564h19Zm206.53-92.91h23.76l-73.73,98.31-73.74-98.31h23.76l50,66.64ZM3010,582.14H2898.84V600l74.11.27-.07,19.2-74-.28V637H3010v19.19H2879.68V563H3010v19.19Z" transform="translate(-10 -10)"/></g></svg>